name C:\Users\u0101727\Documents\MyRepositories\upper-imu-dc\Results\main_tracking\Case_14\ABD01_orientations_groundFrame.mot
datacolumns 13
datarows 40
range 2.81000000 3.20000000
endheader 
time	radius_imu_[0][0]	radius_imu_[0][1]	radius_imu_[0][2]	radius_imu_[1][0]	radius_imu_[1][1]	radius_imu_[1][2]	radius_imu_[2][0]	radius_imu_[2][1]	radius_imu_[2][2]	radius_imu_x	radius_imu_y	radius_imu_z	
          2.81000000	          0.51054002	         -0.06620831	          0.85730120	         -0.19856661	          0.96100342	          0.19246750	         -0.83661233	         -0.26849375	          0.47748394	         -0.38316461	          1.03000429	          0.12896317	
          2.82000000	          0.51581123	         -0.06499609	          0.85423315	         -0.19688556	          0.96143510	          0.19203810	         -0.83377146	         -0.26724158	          0.48312223	         -0.37834401	          1.02407403	          0.12534689	
          2.83000000	          0.52095528	         -0.06389165	          0.85118943	         -0.19547772	          0.96176382	          0.19183018	         -0.83089954	         -0.26632352	          0.48854655	         -0.37415838	          1.01824734	          0.12203383	
          2.84000000	          0.52573600	         -0.06291228	          0.84831816	         -0.19423194	          0.96203834	          0.19171905	         -0.82817608	         -0.26556409	          0.49355861	         -0.37050332	          1.01280081	          0.11909882	
          2.85000000	          0.52991566	         -0.06207004	          0.84577580	         -0.19310608	          0.96228668	          0.19161001	         -0.82577203	         -0.26486159	          0.49794467	         -0.36733622	          1.00801756	          0.11660062	
          2.86000000	          0.53330936	         -0.06137225	          0.84369104	         -0.19209169	          0.96252344	          0.19144036	         -0.82382153	         -0.26416297	          0.50153366	         -0.36464031	          1.00412217	          0.11457414	
          2.87000000	          0.53583238	         -0.06082070	          0.84213093	         -0.19118445	          0.96275586	          0.19117966	         -0.82239417	         -0.26344259	          0.50424779	         -0.36239384	          1.00122260	          0.11302321	
          2.88000000	          0.53752768	         -0.06041081	          0.84107938	         -0.19036432	          0.96298823	          0.19082739	         -0.82147758	         -0.26268651	          0.50613277	         -0.36054948	          0.99927562	          0.11191679	
          2.89000000	          0.53856961	         -0.06013105	          0.84043265	         -0.18958622	          0.96322472	          0.19040799	         -0.82097493	         -0.26188241	          0.50736354	         -0.35902407	          0.99808109	          0.11118905	
          2.90000000	          0.53924186	         -0.05996320	          0.84001347	         -0.18878128	          0.96347063	          0.18996308	         -0.82071910	         -0.26101486	          0.50822377	         -0.35769927	          0.99730804	          0.11074411	
          2.91000000	          0.53988966	         -0.05988367	          0.83960294	         -0.18786745	          0.96373227	          0.18954140	         -0.82050288	         -0.26006551	          0.50905890	         -0.35643384	          0.99655184	          0.11046680	
          2.92000000	          0.54085142	         -0.05986613	          0.83898497	         -0.18676728	          0.96401565	          0.18918722	         -0.82012055	         -0.25901712	          0.51020820	         -0.35508688	          0.99541521	          0.11023992	
          2.93000000	          0.54238546	         -0.05988473	          0.83799274	         -0.18542764	          0.96432475	          0.18892954	         -0.81941113	         -0.25785965	          0.51193143	         -0.35354619	          0.99359432	          0.10996452	
          2.94000000	          0.54461665	         -0.05991682	          0.83654210	         -0.18383448	          0.96465988	          0.18877553	         -0.81828943	         -0.25659558	          0.51435505	         -0.35175096	          0.99094131	          0.10957584	
          2.95000000	          0.54752467	         -0.05994399	          0.83463972	         -0.18201658	          0.96501720	          0.18871083	         -0.81675376	         -0.25524210	          0.51745992	         -0.34969849	          0.98747835	          0.10904750	
          2.96000000	          0.55097369	         -0.05995137	          0.83236640	         -0.18003800	          0.96538921	          0.18870608	         -0.81487073	         -0.25382967	          0.52111054	         -0.34743369	          0.98336383	          0.10838346	
          2.97000000	          0.55475978	         -0.05992658	          0.82984962	         -0.17798516	          0.96576594	          0.18872583	         -0.81275019	         -0.25239841	          0.52510205	         -0.34503132	          0.97883813	          0.10760533	
          2.98000000	          0.55865067	         -0.05985972	          0.82724014	         -0.17595501	          0.96613589	          0.18873601	         -0.81052407	         -0.25099454	          0.52919984	         -0.34258155	          0.97417766	          0.10674326	
          2.99000000	          0.56241407	         -0.05974441	          0.82469450	         -0.17404519	          0.96648694	          0.18870946	         -0.80833080	         -0.24966697	          0.53316763	         -0.34018070	          0.96966184	          0.10583162	
          3.00000000	          0.56584498	         -0.05957911	          0.82235624	         -0.17234377	          0.96680722	          0.18863038	         -0.80629838	         -0.24846353	          0.53679493	         -0.33792255	          0.96553993	          0.10490574	
          3.01000000	          0.56879558	         -0.05936754	          0.82033352	         -0.17091828	          0.96708609	          0.18849783	         -0.80452379	         -0.24742673	          0.53992729	         -0.33588802	          0.96199397	          0.10399757	
          3.02000000	          0.57119899	         -0.05911813	          0.81867989	         -0.16980743	          0.96731500	          0.18832719	         -0.80305489	         -0.24659023	          0.54249065	         -0.33413616	          0.95910839	          0.10313111	
          3.03000000	          0.57307842	         -0.05884255	          0.81738527	         -0.16901840	          0.96748784	          0.18814904	         -0.80188148	         -0.24597730	          0.54450093	         -0.33269962	          0.95685755	          0.10231944	
          3.04000000	          0.57454067	         -0.05855391	          0.81637887	         -0.16853010	          0.96760080	          0.18800610	         -0.80093734	         -0.24560156	          0.54605791	         -0.33158518	          0.95511277	          0.10156363	
          3.05000000	          0.57575897	         -0.05826473	          0.81554082	         -0.16830050	          0.96765176	          0.18794951	         -0.80011034	         -0.24546955	          0.54732819	         -0.33077814	          0.95366313	          0.10085307	
          3.06000000	          0.57695018	         -0.05798525	          0.81471848	         -0.16827583	          0.96763944	          0.18803500	         -0.79925699	         -0.24558425	          0.54852223	         -0.33024880	          0.95224353	          0.10016670	
          3.07000000	          0.57834887	         -0.05772214	          0.81374488	         -0.16840006	          0.96756256	          0.18831918	         -0.79821927	         -0.24594887	          0.54986831	         -0.32996030	          0.95056647	          0.09947563	
          3.08000000	          0.58017902	         -0.05747817	          0.81245835	         -0.16862389	          0.96741896	          0.18885585	         -0.79684270	         -0.24657009	          0.55158399	         -0.32987768	          0.94835640	          0.09874749	
          3.09000000	          0.58262536	         -0.05725281	          0.81072178	         -0.16891241	          0.96720492	          0.18969251	         -0.79499452	         -0.24746064	          0.55384740	         -0.32997738	          0.94538397	          0.09795245	
          3.10000000	          0.58581042	         -0.05704299	          0.80843815	         -0.16925050	          0.96691465	          0.19086730	         -0.79257834	         -0.24864061	          0.55677412	         -0.33025447	          0.94149368	          0.09706847	
          3.11000000	          0.58978469	         -0.05684357	          0.80555746	         -0.16964417	          0.96654037	          0.19240730	         -0.78954092	         -0.25013701	          0.56040753	         -0.33072454	          0.93661571	          0.09608342	
          3.12000000	          0.59453413	         -0.05664682	          0.80207251	         -0.17011720	          0.96607279	          0.19432836	         -0.78586851	         -0.25198117	          0.56472664	         -0.33141843	          0.93075740	          0.09499259	
          3.13000000	          0.60000207	         -0.05644148	          0.79800493	         -0.17070354	          0.96550216	          0.19663643	         -0.78157393	         -0.25420453	          0.56966854	         -0.33237165	          0.92397744	          0.09379280	
          3.14000000	          0.60611719	         -0.05621147	          0.79338655	         -0.17143788	          0.96481956	          0.19932953	         -0.77667948	         -0.25683356	          0.57515695	         -0.33361182	          0.91635242	          0.09247575	
          3.15000000	          0.61281836	         -0.05593527	          0.78824165	         -0.17234650	          0.96401822	          0.20239950	         -0.77120059	         -0.25988482	          0.58112781	         -0.33514831	          0.90794635	          0.09102322	
          3.16000000	          0.62006989	         -0.05558618	          0.78257492	         -0.17344052	          0.96309451	          0.20583331	         -0.76513510	         -0.26336124	          0.58754501	         -0.33696676	          0.89879117	          0.08940604	
          3.17000000	          0.62786423	         -0.05513418	          0.77636765	         -0.17471258	          0.96204859	          0.20961401	         -0.75846030	         -0.26725033	          0.59440326	         -0.33903024	          0.88888212	          0.08758760	
          3.18000000	          0.63621298	         -0.05454909	          0.76958264	         -0.17613744	          0.96088436	          0.21372141	         -0.75113824	         -0.27152465	          0.60171897	         -0.34128628	          0.87818729	          0.08553111	
          3.19000000	          0.64513053	         -0.05380439	          0.76217563	         -0.17767608	          0.95960895	          0.21813272	         -0.74312705	         -0.27614445	          0.60951328	         -0.34367770	          0.86666721	          0.08320822	
          3.20000000	          0.65461636	         -0.05288077	          0.75410944	         -0.17928229	          0.95823152	          0.22282328	         -0.73439450	         -0.28106223	          0.61779344	         -0.34615391	          0.85429705	          0.08060628	
